<?xml version="1.0" encoding="UTF-8"?>
<svg xmlns="http://www.w3.org/2000/svg" xmlns:xlink="http://www.w3.org/1999/xlink" width="3873" height="3873" viewBox="0 0 3873 3873">
<defs>
<clipPath id="clip-0">
<path clip-rule="evenodd" d="M 1936.5 0 C 3006 0 3873 867 3873 1936.5 C 3873 3006 3006 3873 1936.5 3873 C 867 3873 0 3006 0 1936.5 C 0 867 867 0 1936.5 0 "/>
</clipPath>
<linearGradient id="linear-pattern-0" gradientUnits="userSpaceOnUse" x1="-0.500008" y1="0" x2="1.500007" y2="0" gradientTransform="matrix(2072.1, -1778.48, 1778.48, 2072.1, 900.452, 2825.74)">
<stop offset="0" stop-color="rgb(0%, 19.999695%, 59.999084%)" stop-opacity="1"/>
<stop offset="0.25" stop-color="rgb(0%, 19.999695%, 59.999084%)" stop-opacity="1"/>
<stop offset="0.253906" stop-color="rgb(0.907898%, 20.425415%, 60.211182%)" stop-opacity="1"/>
<stop offset="0.257812" stop-color="rgb(1.817322%, 20.851135%, 60.424805%)" stop-opacity="1"/>
<stop offset="0.261719" stop-color="rgb(2.72522%, 21.276855%, 60.638428%)" stop-opacity="1"/>
<stop offset="0.265625" stop-color="rgb(3.634644%, 21.704102%, 60.852051%)" stop-opacity="1"/>
<stop offset="0.269531" stop-color="rgb(4.544067%, 22.129822%, 61.064148%)" stop-opacity="1"/>
<stop offset="0.273437" stop-color="rgb(5.453491%, 22.555542%, 61.277771%)" stop-opacity="1"/>
<stop offset="0.277344" stop-color="rgb(6.361389%, 22.981262%, 61.489868%)" stop-opacity="1"/>
<stop offset="0.28125" stop-color="rgb(7.270813%, 23.408508%, 61.703491%)" stop-opacity="1"/>
<stop offset="0.285156" stop-color="rgb(8.180237%, 23.834229%, 61.915588%)" stop-opacity="1"/>
<stop offset="0.289062" stop-color="rgb(9.089661%, 24.259949%, 62.129211%)" stop-opacity="1"/>
<stop offset="0.292969" stop-color="rgb(9.997559%, 24.685669%, 62.342834%)" stop-opacity="1"/>
<stop offset="0.296875" stop-color="rgb(10.906982%, 25.112915%, 62.556458%)" stop-opacity="1"/>
<stop offset="0.300781" stop-color="rgb(11.816406%, 25.538635%, 62.768555%)" stop-opacity="1"/>
<stop offset="0.304688" stop-color="rgb(12.72583%, 25.964355%, 62.982178%)" stop-opacity="1"/>
<stop offset="0.308594" stop-color="rgb(13.633728%, 26.390076%, 63.194275%)" stop-opacity="1"/>
<stop offset="0.3125" stop-color="rgb(14.543152%, 26.817322%, 63.407898%)" stop-opacity="1"/>
<stop offset="0.316406" stop-color="rgb(15.452576%, 27.243042%, 63.619995%)" stop-opacity="1"/>
<stop offset="0.320312" stop-color="rgb(16.362%, 27.668762%, 63.833618%)" stop-opacity="1"/>
<stop offset="0.324219" stop-color="rgb(17.269897%, 28.094482%, 64.047241%)" stop-opacity="1"/>
<stop offset="0.328125" stop-color="rgb(18.179321%, 28.521729%, 64.260864%)" stop-opacity="1"/>
<stop offset="0.332031" stop-color="rgb(19.088745%, 28.947449%, 64.472961%)" stop-opacity="1"/>
<stop offset="0.335938" stop-color="rgb(19.998169%, 29.373169%, 64.686584%)" stop-opacity="1"/>
<stop offset="0.339844" stop-color="rgb(20.906067%, 29.798889%, 64.898682%)" stop-opacity="1"/>
<stop offset="0.34375" stop-color="rgb(21.815491%, 30.226135%, 65.112305%)" stop-opacity="1"/>
<stop offset="0.347656" stop-color="rgb(22.724915%, 30.651855%, 65.324402%)" stop-opacity="1"/>
<stop offset="0.351562" stop-color="rgb(23.634338%, 31.077576%, 65.538025%)" stop-opacity="1"/>
<stop offset="0.355469" stop-color="rgb(24.542236%, 31.503296%, 65.751648%)" stop-opacity="1"/>
<stop offset="0.359375" stop-color="rgb(25.45166%, 31.930542%, 65.965271%)" stop-opacity="1"/>
<stop offset="0.363281" stop-color="rgb(26.361084%, 32.356262%, 66.177368%)" stop-opacity="1"/>
<stop offset="0.367187" stop-color="rgb(27.270508%, 32.781982%, 66.390991%)" stop-opacity="1"/>
<stop offset="0.371094" stop-color="rgb(28.178406%, 33.207703%, 66.603088%)" stop-opacity="1"/>
<stop offset="0.375" stop-color="rgb(29.08783%, 33.634949%, 66.816711%)" stop-opacity="1"/>
<stop offset="0.378906" stop-color="rgb(29.997253%, 34.060669%, 67.028809%)" stop-opacity="1"/>
<stop offset="0.382812" stop-color="rgb(30.906677%, 34.486389%, 67.242432%)" stop-opacity="1"/>
<stop offset="0.386719" stop-color="rgb(31.814575%, 34.912109%, 67.456055%)" stop-opacity="1"/>
<stop offset="0.390625" stop-color="rgb(32.723999%, 35.339355%, 67.669678%)" stop-opacity="1"/>
<stop offset="0.394531" stop-color="rgb(33.633423%, 35.765076%, 67.881775%)" stop-opacity="1"/>
<stop offset="0.398438" stop-color="rgb(34.542847%, 36.190796%, 68.095398%)" stop-opacity="1"/>
<stop offset="0.402344" stop-color="rgb(35.450745%, 36.616516%, 68.307495%)" stop-opacity="1"/>
<stop offset="0.40625" stop-color="rgb(36.360168%, 37.043762%, 68.521118%)" stop-opacity="1"/>
<stop offset="0.410156" stop-color="rgb(37.269592%, 37.469482%, 68.733215%)" stop-opacity="1"/>
<stop offset="0.414062" stop-color="rgb(38.179016%, 37.895203%, 68.946838%)" stop-opacity="1"/>
<stop offset="0.417969" stop-color="rgb(39.086914%, 38.320923%, 69.160461%)" stop-opacity="1"/>
<stop offset="0.421875" stop-color="rgb(39.996338%, 38.748169%, 69.374084%)" stop-opacity="1"/>
<stop offset="0.425781" stop-color="rgb(40.905762%, 39.173889%, 69.586182%)" stop-opacity="1"/>
<stop offset="0.429688" stop-color="rgb(41.815186%, 39.599609%, 69.799805%)" stop-opacity="1"/>
<stop offset="0.433594" stop-color="rgb(42.723083%, 40.02533%, 70.011902%)" stop-opacity="1"/>
<stop offset="0.4375" stop-color="rgb(43.632507%, 40.452576%, 70.225525%)" stop-opacity="1"/>
<stop offset="0.441406" stop-color="rgb(44.541931%, 40.878296%, 70.437622%)" stop-opacity="1"/>
<stop offset="0.445312" stop-color="rgb(45.451355%, 41.304016%, 70.651245%)" stop-opacity="1"/>
<stop offset="0.449219" stop-color="rgb(46.359253%, 41.729736%, 70.864868%)" stop-opacity="1"/>
<stop offset="0.453125" stop-color="rgb(47.268677%, 42.156982%, 71.078491%)" stop-opacity="1"/>
<stop offset="0.457031" stop-color="rgb(48.178101%, 42.582703%, 71.290588%)" stop-opacity="1"/>
<stop offset="0.460938" stop-color="rgb(49.087524%, 43.008423%, 71.504211%)" stop-opacity="1"/>
<stop offset="0.464844" stop-color="rgb(49.801636%, 43.1427%, 71.463013%)" stop-opacity="1"/>
<stop offset="0.46875" stop-color="rgb(50.515747%, 43.276978%, 71.42334%)" stop-opacity="1"/>
<stop offset="0.472656" stop-color="rgb(50.924683%, 42.953491%, 70.986938%)" stop-opacity="1"/>
<stop offset="0.476562" stop-color="rgb(51.333618%, 42.630005%, 70.550537%)" stop-opacity="1"/>
<stop offset="0.480469" stop-color="rgb(51.742554%, 42.306519%, 70.114136%)" stop-opacity="1"/>
<stop offset="0.484375" stop-color="rgb(52.153015%, 41.983032%, 69.677734%)" stop-opacity="1"/>
<stop offset="0.488281" stop-color="rgb(52.561951%, 41.659546%, 69.241333%)" stop-opacity="1"/>
<stop offset="0.492188" stop-color="rgb(52.972412%, 41.33606%, 68.804932%)" stop-opacity="1"/>
<stop offset="0.496094" stop-color="rgb(53.381348%, 41.012573%, 68.36853%)" stop-opacity="1"/>
<stop offset="0.5" stop-color="rgb(53.791809%, 40.690613%, 67.932129%)" stop-opacity="1"/>
<stop offset="0.503906" stop-color="rgb(54.200745%, 40.367126%, 67.495728%)" stop-opacity="1"/>
<stop offset="0.507812" stop-color="rgb(54.60968%, 40.04364%, 67.059326%)" stop-opacity="1"/>
<stop offset="0.511719" stop-color="rgb(55.018616%, 39.720154%, 66.622925%)" stop-opacity="1"/>
<stop offset="0.515625" stop-color="rgb(55.429077%, 39.396667%, 66.186523%)" stop-opacity="1"/>
<stop offset="0.519531" stop-color="rgb(55.838013%, 39.073181%, 65.750122%)" stop-opacity="1"/>
<stop offset="0.523438" stop-color="rgb(56.248474%, 38.749695%, 65.313721%)" stop-opacity="1"/>
<stop offset="0.527344" stop-color="rgb(56.65741%, 38.426208%, 64.875793%)" stop-opacity="1"/>
<stop offset="0.53125" stop-color="rgb(57.067871%, 38.104248%, 64.439392%)" stop-opacity="1"/>
<stop offset="0.535156" stop-color="rgb(57.476807%, 37.780762%, 64.002991%)" stop-opacity="1"/>
<stop offset="0.539062" stop-color="rgb(57.885742%, 37.457275%, 63.566589%)" stop-opacity="1"/>
<stop offset="0.542969" stop-color="rgb(58.294678%, 37.133789%, 63.130188%)" stop-opacity="1"/>
<stop offset="0.546875" stop-color="rgb(58.705139%, 36.810303%, 62.693787%)" stop-opacity="1"/>
<stop offset="0.550781" stop-color="rgb(59.114075%, 36.486816%, 62.257385%)" stop-opacity="1"/>
<stop offset="0.554688" stop-color="rgb(59.524536%, 36.16333%, 61.820984%)" stop-opacity="1"/>
<stop offset="0.558594" stop-color="rgb(59.933472%, 35.839844%, 61.384583%)" stop-opacity="1"/>
<stop offset="0.5625" stop-color="rgb(60.342407%, 35.517883%, 60.948181%)" stop-opacity="1"/>
<stop offset="0.566406" stop-color="rgb(60.751343%, 35.194397%, 60.51178%)" stop-opacity="1"/>
<stop offset="0.570312" stop-color="rgb(61.161804%, 34.870911%, 60.075378%)" stop-opacity="1"/>
<stop offset="0.574219" stop-color="rgb(61.57074%, 34.547424%, 59.638977%)" stop-opacity="1"/>
<stop offset="0.578125" stop-color="rgb(61.981201%, 34.223938%, 59.202576%)" stop-opacity="1"/>
<stop offset="0.582031" stop-color="rgb(62.390137%, 33.900452%, 58.766174%)" stop-opacity="1"/>
<stop offset="0.585938" stop-color="rgb(62.800598%, 33.576965%, 58.329773%)" stop-opacity="1"/>
<stop offset="0.589844" stop-color="rgb(63.209534%, 33.253479%, 57.893372%)" stop-opacity="1"/>
<stop offset="0.59375" stop-color="rgb(63.618469%, 32.931519%, 57.45697%)" stop-opacity="1"/>
<stop offset="0.597656" stop-color="rgb(64.027405%, 32.608032%, 57.020569%)" stop-opacity="1"/>
<stop offset="0.601562" stop-color="rgb(64.437866%, 32.284546%, 56.584167%)" stop-opacity="1"/>
<stop offset="0.605469" stop-color="rgb(64.846802%, 31.96106%, 56.147766%)" stop-opacity="1"/>
<stop offset="0.609375" stop-color="rgb(65.257263%, 31.637573%, 55.711365%)" stop-opacity="1"/>
<stop offset="0.613281" stop-color="rgb(65.666199%, 31.314087%, 55.274963%)" stop-opacity="1"/>
<stop offset="0.617188" stop-color="rgb(66.07666%, 30.990601%, 54.838562%)" stop-opacity="1"/>
<stop offset="0.621094" stop-color="rgb(66.485596%, 30.667114%, 54.402161%)" stop-opacity="1"/>
<stop offset="0.625" stop-color="rgb(66.894531%, 30.345154%, 53.965759%)" stop-opacity="1"/>
<stop offset="0.628906" stop-color="rgb(67.303467%, 30.021667%, 53.529358%)" stop-opacity="1"/>
<stop offset="0.632812" stop-color="rgb(67.713928%, 29.698181%, 53.092957%)" stop-opacity="1"/>
<stop offset="0.636719" stop-color="rgb(68.122864%, 29.374695%, 52.656555%)" stop-opacity="1"/>
<stop offset="0.640625" stop-color="rgb(68.533325%, 29.051208%, 52.220154%)" stop-opacity="1"/>
<stop offset="0.644531" stop-color="rgb(68.942261%, 28.727722%, 51.783752%)" stop-opacity="1"/>
<stop offset="0.648437" stop-color="rgb(69.352722%, 28.404236%, 51.347351%)" stop-opacity="1"/>
<stop offset="0.652344" stop-color="rgb(69.761658%, 28.08075%, 50.909424%)" stop-opacity="1"/>
<stop offset="0.65625" stop-color="rgb(70.170593%, 27.758789%, 50.473022%)" stop-opacity="1"/>
<stop offset="0.660156" stop-color="rgb(70.579529%, 27.435303%, 50.036621%)" stop-opacity="1"/>
<stop offset="0.664062" stop-color="rgb(70.98999%, 27.111816%, 49.60022%)" stop-opacity="1"/>
<stop offset="0.667969" stop-color="rgb(71.398926%, 26.78833%, 49.163818%)" stop-opacity="1"/>
<stop offset="0.671875" stop-color="rgb(71.809387%, 26.464844%, 48.727417%)" stop-opacity="1"/>
<stop offset="0.675781" stop-color="rgb(72.218323%, 26.141357%, 48.291016%)" stop-opacity="1"/>
<stop offset="0.679688" stop-color="rgb(72.628784%, 25.817871%, 47.854614%)" stop-opacity="1"/>
<stop offset="0.683594" stop-color="rgb(73.03772%, 25.494385%, 47.418213%)" stop-opacity="1"/>
<stop offset="0.6875" stop-color="rgb(73.446655%, 25.172424%, 46.981812%)" stop-opacity="1"/>
<stop offset="0.691406" stop-color="rgb(73.855591%, 24.848938%, 46.54541%)" stop-opacity="1"/>
<stop offset="0.695312" stop-color="rgb(74.266052%, 24.525452%, 46.109009%)" stop-opacity="1"/>
<stop offset="0.699219" stop-color="rgb(74.674988%, 24.201965%, 45.672607%)" stop-opacity="1"/>
<stop offset="0.703125" stop-color="rgb(75.085449%, 23.878479%, 45.236206%)" stop-opacity="1"/>
<stop offset="0.707031" stop-color="rgb(75.494385%, 23.554993%, 44.799805%)" stop-opacity="1"/>
<stop offset="0.710938" stop-color="rgb(75.904846%, 23.231506%, 44.363403%)" stop-opacity="1"/>
<stop offset="0.714844" stop-color="rgb(76.313782%, 22.90802%, 43.927002%)" stop-opacity="1"/>
<stop offset="0.71875" stop-color="rgb(76.722717%, 22.58606%, 43.490601%)" stop-opacity="1"/>
<stop offset="0.722656" stop-color="rgb(77.131653%, 22.262573%, 43.054199%)" stop-opacity="1"/>
<stop offset="0.726562" stop-color="rgb(77.542114%, 21.939087%, 42.617798%)" stop-opacity="1"/>
<stop offset="0.730469" stop-color="rgb(77.95105%, 21.615601%, 42.181396%)" stop-opacity="1"/>
<stop offset="0.734375" stop-color="rgb(78.361511%, 21.292114%, 41.744995%)" stop-opacity="1"/>
<stop offset="0.738281" stop-color="rgb(78.770447%, 20.968628%, 41.308594%)" stop-opacity="1"/>
<stop offset="0.742187" stop-color="rgb(79.180908%, 20.645142%, 40.872192%)" stop-opacity="1"/>
<stop offset="0.746094" stop-color="rgb(79.589844%, 20.321655%, 40.435791%)" stop-opacity="1"/>
<stop offset="0.75" stop-color="rgb(79.998779%, 19.999695%, 39.99939%)" stop-opacity="1"/>
<stop offset="1" stop-color="rgb(79.998779%, 19.999695%, 39.99939%)" stop-opacity="1"/>
</linearGradient>
</defs>
<g clip-path="url(#clip-0)">
<path fill-rule="nonzero" fill="url(#linear-pattern-0)" d="M -1914.109375 1642.878906 L 1642.878906 5787.109375 L 5787.109375 2230.121094 L 2230.121094 -1914.109375 Z M -1914.109375 1642.878906 "/>
</g>
<path fill-rule="evenodd" fill="rgb(100%, 100%, 99.609375%)" fill-opacity="1" d="M 1067.5 2061.101562 L 2805.398438 2061.101562 L 2805.398438 1045 C 2805.398438 1025.601562 2789.601562 1009.898438 2770.300781 1009.898438 L 1102.699219 1009.898438 C 1083.300781 1009.898438 1067.601562 1025.699219 1067.601562 1045 Z M 2848.800781 2147.800781 L 1024.199219 2147.800781 C 1000.300781 2147.800781 980.898438 2128.398438 980.898438 2104.5 L 980.898438 1045 C 980.898438 977.800781 1035.5 923.199219 1102.699219 923.199219 L 2770.300781 923.199219 C 2837.5 923.199219 2892.101562 977.800781 2892.101562 1045 L 2892.101562 2104.398438 C 2892.101562 2128.398438 2872.699219 2147.800781 2848.800781 2147.800781 "/>
<path fill-rule="evenodd" fill="rgb(100%, 100%, 99.609375%)" fill-opacity="1" d="M 2131 2253.601562 L 1741.898438 2253.601562 C 1729.898438 2253.601562 1720.199219 2243.898438 1720.199219 2231.898438 C 1720.199219 2219.898438 1729.898438 2210.199219 1741.898438 2210.199219 L 2131 2210.199219 C 2143 2210.199219 2152.699219 2219.898438 2152.699219 2231.898438 C 2152.699219 2243.898438 2143 2253.601562 2131 2253.601562 Z M 2798 2381.199219 L 1075 2381.199219 C 976.5 2381.199219 896.398438 2301.101562 896.398438 2202.601562 L 896.398438 2104.5 C 896.398438 2092.5 906.101562 2082.800781 918.101562 2082.800781 L 2955 2082.800781 C 2967 2082.800781 2976.699219 2092.5 2976.699219 2104.5 L 2976.699219 2202.601562 C 2976.601562 2301 2896.5 2381.199219 2798 2381.199219 "/>
<path fill-rule="evenodd" fill="rgb(100%, 100%, 99.609375%)" fill-opacity="1" d="M 1187.300781 1944.300781 L 2685.800781 1944.300781 L 2685.800781 1126.800781 L 1187.300781 1126.800781 Z M 2748 2028.199219 L 1125 2028.199219 C 1113 2028.199219 1103.300781 2018.5 1103.300781 2006.5 L 1103.300781 1064.398438 C 1103.300781 1052.398438 1113 1042.699219 1125 1042.699219 L 2748 1042.699219 C 2760 1042.699219 2769.699219 1052.398438 2769.699219 1064.398438 L 2769.699219 2006.5 C 2769.699219 2018.5 2760 2028.199219 2748 2028.199219 "/>
<path fill-rule="evenodd" fill="rgb(100%, 100%, 99.609375%)" fill-opacity="1" d="M 1931.199219 1242.300781 C 1846.800781 1246 1783.5 1269.5 1783.5 1356.699219 C 1783.5 1450.398438 1844.898438 1511.800781 1938.601562 1511.800781 C 2032.300781 1511.800781 2095.101562 1449 2095.101562 1355.300781 C 2095.101562 1264.199219 2006.800781 1239 1931.199219 1242.300781 Z M 1936.5 1571.398438 C 1818.898438 1571.398438 1723.199219 1475.699219 1723.199219 1358.101562 C 1723.199219 1240.5 1818.898438 1144.800781 1936.5 1144.800781 C 2054.101562 1144.800781 2149.800781 1240.5 2149.800781 1358.101562 C 2149.699219 1475.699219 2054.101562 1571.398438 1936.5 1571.398438 "/>
<path fill-rule="evenodd" fill="rgb(100%, 100%, 99.609375%)" fill-opacity="1" d="M 2258.300781 2028.199219 L 1614.699219 2028.199219 C 1602.699219 2028.199219 1593 2018.5 1593 2006.5 L 1593 1808.199219 C 1593 1697.699219 1682.5 1603.898438 1801.199219 1590 C 1806.699219 1589.300781 1812.300781 1590.898438 1816.800781 1594.199219 C 1850.300781 1619.5 1892.898438 1633.398438 1936.5 1633.398438 C 1980.199219 1633.398438 2022.699219 1619.5 2056.199219 1594.199219 C 2060.699219 1590.800781 2066.199219 1589.300781 2071.800781 1590 C 2190.5 1603.898438 2280 1697.699219 2280 1808.199219 L 2280 2006.5 C 2280 2018.5 2270.300781 2028.199219 2258.300781 2028.199219 "/>
<path fill-rule="evenodd" fill="rgb(100%, 100%, 99.609375%)" fill-opacity="1" d="M 1914.800781 2949.800781 L 1388.5 2949.800781 C 1376.5 2949.800781 1366.800781 2940.101562 1366.800781 2928.101562 L 1366.800781 2497.601562 C 1366.800781 2487.5 1373.800781 2478.699219 1383.699219 2476.5 C 1439.398438 2464 1495.800781 2457.699219 1551.199219 2457.699219 C 1727.5 2457.699219 1856.199219 2520.101562 1914.699219 2555.199219 Z M 2032.898438 2733.398438 C 2028 2733.398438 2023 2731.699219 2018.898438 2728.300781 C 2009.800781 2720.601562 2008.601562 2706.898438 2016.398438 2697.800781 C 2120.800781 2574.398438 2379.300781 2599.300781 2390.300781 2600.398438 C 2402.199219 2601.601562 2410.898438 2612.300781 2409.601562 2624.199219 C 2408.398438 2636.101562 2397.699219 2644.800781 2385.898438 2643.601562 C 2383.5 2643.398438 2139.199219 2619.898438 2049.5 2725.800781 C 2045.199219 2730.800781 2039.101562 2733.398438 2032.898438 2733.398438 Z M 2032.898438 2867.199219 C 2028 2867.199219 2023 2865.5 2018.898438 2862.101562 C 2009.800781 2854.398438 2008.601562 2840.699219 2016.398438 2831.601562 C 2120.800781 2708.199219 2379.300781 2733.101562 2390.300781 2734.199219 C 2402.199219 2735.398438 2410.898438 2746.101562 2409.601562 2758 C 2408.398438 2769.898438 2397.699219 2778.601562 2385.898438 2777.398438 C 2383.5 2777.199219 2139.199219 2753.699219 2049.5 2859.601562 C 2045.199219 2864.601562 2039.101562 2867.199219 2032.898438 2867.199219 Z M 1840.101562 2733.398438 C 1833.898438 2733.398438 1827.800781 2730.800781 1823.601562 2725.699219 C 1733.898438 2619.699219 1489.699219 2643.199219 1487.199219 2643.5 C 1475.300781 2644.800781 1464.699219 2636 1463.5 2624.101562 C 1462.300781 2612.199219 1470.898438 2601.601562 1482.898438 2600.300781 C 1493.800781 2599.199219 1752.300781 2574.300781 1856.800781 2697.699219 C 1864.5 2706.800781 1863.398438 2720.5 1854.300781 2728.199219 C 1850 2731.699219 1845 2733.398438 1840.101562 2733.398438 Z M 1840.101562 2867.199219 C 1833.898438 2867.199219 1827.800781 2864.601562 1823.601562 2859.5 C 1733.898438 2753.5 1489.699219 2777 1487.199219 2777.300781 C 1475.300781 2778.5 1464.699219 2769.800781 1463.5 2757.898438 C 1462.300781 2746 1470.898438 2735.398438 1482.898438 2734.101562 C 1493.800781 2733 1752.300781 2708.101562 1856.800781 2831.5 C 1864.5 2840.601562 1863.398438 2854.300781 1854.300781 2862 C 1850 2865.5 1845 2867.199219 1840.101562 2867.199219 Z M 2484.5 2949.800781 L 1958.199219 2949.800781 L 1958.199219 2555.199219 C 2016.699219 2520 2145.398438 2457.601562 2321.699219 2457.601562 C 2377.199219 2457.601562 2433.5 2463.898438 2489.199219 2476.398438 C 2499.101562 2478.601562 2506.101562 2487.398438 2506.101562 2497.5 L 2506.101562 2928 C 2506.101562 2940.101562 2496.398438 2949.800781 2484.5 2949.800781 "/>
<path fill-rule="evenodd" fill="rgb(100%, 100%, 99.609375%)" fill-opacity="1" d="M 1327.199219 2949.800781 L 1274 2949.800781 C 1262 2949.800781 1252.300781 2940.101562 1252.300781 2928.101562 L 1252.300781 2595.601562 C 1252.300781 2583.601562 1262 2573.898438 1274 2573.898438 L 1323.5 2573.898438 L 1323.5 2928.101562 C 1323.5 2935.699219 1324.800781 2943 1327.199219 2949.800781 Z M 2599 2949.800781 L 2545.800781 2949.800781 C 2548.199219 2943 2549.5 2935.699219 2549.5 2928.101562 L 2549.5 2573.898438 L 2599 2573.898438 C 2611 2573.898438 2620.699219 2583.601562 2620.699219 2595.601562 L 2620.699219 2928.101562 C 2620.699219 2940.101562 2610.898438 2949.800781 2599 2949.800781 "/>
</svg>
